<svg xmlns="http://www.w3.org/2000/svg" viewBox="0 0 512.0 512.0" width="512" height="512"><rect width="512" height="512" rx="112" fill="#0B0C0F"></rect><clipPath id="se19"><rect x="89.00" y="179.75" width="334.00" height="17.69"></rect><rect x="89.00" y="201.78" width="334.00" height="22.41"></rect><rect x="89.00" y="229.97" width="334.00" height="21.69"></rect><rect x="89.00" y="258.89" width="334.00" height="20.24"></rect><rect x="89.00" y="287.81" width="334.00" height="19.52"></rect><rect x="89.00" y="317.45" width="334.00" height="14.37"></rect></clipPath><g clip-path="url(#se19)"><path fill="#FFB000" d="M175.73428717424628 330.8275421563618Q158.02861522738885 330.8275421563618 142.6415431783342 328.7197240674502Q127.25447112927951 326.6119059785386 115.66147164026572 321.3423607562596Q104.06847215125191 316.0728155339806 97.53423607562596 306.5876341338784Q91.0 297.1024527337762 91.0 282.55850792028616Q91.0 282.1369443025038 91.0 281.50459887583037Q91.0 280.8722534491569 91.21078180889116 280.2399080224834H133.36714358712314Q133.156361778232 281.083035258048 133.0509708737864 281.92616249361265Q132.94557996934083 282.76928972917733 132.94557996934083 283.8231987736331Q132.94557996934083 290.3574348492591 137.8989524782831 294.0461165048544Q142.85232498722536 297.7347981604497 151.70516096065407 299.2102708226878Q160.55799693408278 300.6857434849259 172.5725600408789 300.6857434849259Q177.42054164537558 300.6857434849259 182.584695963209 300.3695707715892Q187.7488502810424 300.05339805825247 192.59683188553907 299.3156617271334Q197.44481349003576 298.57792539601434 201.34427695452223 297.1024527337762Q205.2437404190087 295.62698007153807 207.45694941236587 293.4137710781809Q209.67015840572304 291.20056208482373 209.67015840572304 287.8280531425652Q209.67015840572304 283.40163515585084 204.92756770567195 280.76686254471133Q200.18497700562085 278.1320899335718 191.85909555442004 276.5512263668881Q183.53321410321922 274.9703628002044 173.31029637199796 273.7056719468575Q163.0873786407767 272.4409810935105 152.12672457843638 270.6493357179356Q141.16607051609606 268.8576903423608 130.83776188042924 265.80135411343895Q120.5094532447624 262.74501788451715 112.28896269800715 257.6862544711293Q104.06847215125191 252.62749105774145 99.22049054675523 244.6177823198774Q94.37250894225856 236.6080735820133 94.37250894225856 225.22585590189067Q94.37250894225856 213.63285641287686 100.16900868676547 205.30697496167605Q105.96550843127235 196.98109351047523 116.50459887583035 191.50076647930507Q127.04368932038835 186.0204394481349 141.37685232498723 183.38566683699543Q155.7100153295861 180.75089422585592 172.5725600408789 180.75089422585592Q189.856668369954 180.75089422585592 203.87365866121615 183.491057741441Q217.89064895247827 186.23122125702608 227.90278487480836 191.60615738375066Q237.91492079713845 196.98109351047523 243.28985692386303 205.0961931527849Q248.6647930505876 213.21129279509455 248.6647930505876 224.17194685743488V227.1228921819111H207.14077669902912V225.43663771078184Q207.14077669902912 221.01021972406747 203.34670413898823 217.5323198773633Q199.55263157894737 214.05442003065917 192.28065917220235 212.05199284619317Q185.00868676545733 210.04956566172714 174.68037812979048 210.04956566172714Q162.24425140521205 210.04956566172714 154.23454266734797 211.63042922841083Q146.2248339294839 213.21129279509455 142.43076136944302 215.84606540623406Q138.63668880940213 218.48083801737354 138.63668880940213 221.85334695963212Q138.63668880940213 226.0689831374553 143.4846704138988 228.49297393970363Q148.3326520183955 230.91696474195197 156.55314256515072 232.3924374041901Q164.77363311190598 233.86791006642824 174.99655084312724 235.1326009197752Q185.2194685743485 236.39729177312216 196.28551354113438 238.08354624425144Q207.3515585079203 239.7698007153807 217.57447623914155 242.72074603985695Q227.7973939703628 245.67169136433318 236.01788451711803 250.62506387327545Q244.23837506387326 255.57843638221772 249.08635666836994 263.271972406745Q253.93433827286663 270.9655084312724 253.93433827286663 282.1369443025038Q253.93433827286663 299.63183444047013 243.81681144609095 310.3817066939193Q233.69928461931528 321.13157894736844 216.0990035769034 325.9795605518651Q198.49872253449155 330.8275421563618 175.73428717424628 330.8275421563618Z"></path><path fill="#F5F2EC" d="M268.3939703628002 328.2981604496679V183.28027593254984H419.3137455288707V215.108329075115H311.3934593765968V239.55901890648954H405.82370975983645V270.3331630045989H311.3934593765968V296.47010730710275H421.0V328.2981604496679Z"></path></g></svg>